<?xml version="1.0" encoding="UTF-8" standalone="no"?>
<!-- Created with Inkscape (http://www.inkscape.org/) -->

<svg
   version="1.1"
   id="svg1"
   xml:space="preserve"
   width="501.74222"
   height="557.88556"
   xmlns:inkscape="http://www.inkscape.org/namespaces/inkscape"
   xmlns:sodipodi="http://sodipodi.sourceforge.net/DTD/sodipodi-0.dtd"
   xmlns="http://www.w3.org/2000/svg"
   xmlns:svg="http://www.w3.org/2000/svg"><defs
     id="defs1" /><sodipodi:namedview
     id="namedview1"
     pagecolor="#505050"
     bordercolor="#eeeeee"
     borderopacity="1"
     inkscape:showpageshadow="0"
     inkscape:pageopacity="0"
     inkscape:pagecheckerboard="0"
     inkscape:deskcolor="#505050" /><inkscape:clipboard
     min="205.98215,266.34641"
     max="707.72436,824.23196"
     geom-min="205.98215,266.34641"
     geom-max="707.72436,824.23196" /><g
     id="layer1"
     transform="matrix(3.7795276,0,0,3.7795276,-205.98215,-266.34641)"><path
       style="fill:#ffffff;fill-opacity:1;stroke:#ffffff;stroke-width:5.63528;stroke-linecap:round;stroke-linejoin:round;stroke-dasharray:none;stroke-opacity:1;paint-order:fill markers stroke"
       d="m 287.41405,781.28112 c -2.36846,-2.71526 -4.81624,-7.32807 -4.81624,-9.07617 0,-0.70813 8.16968,-9.76791 18.15484,-20.13285 24.14774,-25.06617 26.45869,-28.46418 21.91995,-32.23099 -1.61532,-1.34061 -3.7596,-0.38998 -13.04787,5.78457 -6.11318,4.06385 -18.36697,12.68915 -27.23064,19.16734 l -16.11577,11.77852 -7.27138,-4.54827 c -7.22229,-4.51758 -7.25267,-4.56239 -4.50093,-6.63802 1.52374,-1.14937 24.01416,-14.95263 49.97872,-30.67394 l 47.20827,-28.58419 12.75614,-19.09444 c 11.70236,-17.51706 34.58956,-49.65971 40.0054,-56.18333 1.77056,-2.13272 4.28337,-2.90762 11.65572,-3.59444 16.9901,-1.58279 38.30763,-10.03107 47.72672,-18.91441 8.11396,-7.65245 7.98879,-7.68438 -26.25591,-6.69646 -34.75716,1.0027 -43.22021,-0.0156 -58.19272,-7.002 -7.63382,-3.56205 -19.00975,-11.10838 -19.10042,-12.67045 -0.0217,-0.37296 6.11859,-1.34761 13.64499,-2.16587 15.68379,-1.70514 24.77474,-4.15039 30.98186,-8.33337 3.52591,-2.37612 4.34286,-3.74627 4.34286,-7.28368 0,-5.55365 -0.78656,-5.75112 -29.91463,-7.51054 -31.90943,-1.92743 -45.2332,-5.77143 -57.53393,-16.59896 -6.50536,-5.72625 -15.81863,-21.53993 -11.70941,-19.88226 27.68299,11.16733 53.2785,15.71352 69.2202,12.29463 8.25522,-1.77042 11.47981,-4.35102 11.47981,-9.18713 0,-4.68264 -1.31887,-5.28941 -21.72481,-9.99498 -21.59222,-4.97914 -39.7307,-11.15282 -49.10255,-16.71274 -10.82925,-6.42453 -21.01535,-17.15248 -26.28218,-27.68026 -4.59202,-9.1789 -8.37823,-22.42979 -6.84657,-23.96145 0.45952,-0.45953 4.44624,2.63171 8.85936,6.86941 10.06088,9.66095 22.49604,17.74275 40.75941,26.49016 31.31256,14.99746 54.33734,18.79607 54.33734,8.96453 0,-3.55667 -0.68102,-4.03123 -22.91334,-15.9671 -27.00251,-14.49685 -41.10952,-24.36528 -55.40215,-38.75606 -9.86775,-9.93552 -13.83876,-15.0083 -17.52917,-22.39272 -4.42206,-8.84845 -9.52321,-27.44462 -7.95779,-29.01004 0.37501,-0.37501 4.26443,2.71449 8.64316,6.86555 33.47906,31.7384 68.53552,55.24664 138.42683,92.82658 38.45799,20.67853 57.10933,35.3459 83.54302,65.69805 6.01454,6.9061 11.80496,12.55654 12.86763,12.55654 1.6231,0 1.84235,-1.78157 1.37079,-11.13842 -0.45393,-9.00729 -1.42005,-13.22896 -5.04939,-22.06455 l -4.48805,-10.92611 7.10314,-10.07778 c 17.93114,-25.44025 39.97913,-40.84808 63.28762,-44.22737 17.36914,-2.51821 32.91433,3.97238 46.25826,19.31422 5.96195,6.85459 7.59148,7.93826 15.59032,10.36784 4.91286,1.49223 8.55346,3.09218 8.09022,3.55543 -0.46326,0.46325 -4.39028,2.89372 -8.72671,5.40105 -7.83095,4.52786 -7.91088,4.63248 -11.7825,15.42187 -2.14392,5.9747 -7.71525,17.35816 -12.38071,25.29659 -6.76156,11.505 -10.0531,19.14518 -16.22281,37.65573 -9.01147,27.03651 -14.89352,39.8112 -26.02722,56.52633 -23.01647,34.55478 -60.32668,62.1669 -99.54577,73.67069 -19.08499,5.59803 -37.69611,8.36487 -90.79057,13.4974 -18.55343,1.79353 -34.38508,3.4937 -35.18143,3.77817 -0.79636,0.28447 -15.56407,16.87944 -32.81713,36.87772 -17.25307,19.99827 -32.60565,37.51241 -34.11684,38.92031 -3.37337,3.14277 -5.1172,3.21862 -7.63504,0.33212 z M 617.37663,478.1289 c 9.95419,-7.21725 4.12009,-23.04458 -8.49445,-23.04458 -7.14667,0 -11.48255,2.87631 -13.08511,8.68031 -1.69596,6.14228 1.46824,12.75369 7.58745,15.8535 4.94343,2.5042 9.09349,2.06249 13.99211,-1.48923 z"
       id="path3"
       transform="scale(0.26458333)" /><path
       style="fill:#ffffff;fill-opacity:1;stroke:#ffffff;stroke-width:5.63528;stroke-linecap:round;stroke-linejoin:round;stroke-dasharray:none;stroke-opacity:1;paint-order:fill markers stroke"
       d="m 492.63673,467.0912 c -11.96968,-9.12598 -26.94099,-18.14973 -54.73742,-32.99228 -10.15188,-5.42083 -23.17798,-12.68981 -28.9469,-16.15329 -10.23573,-6.14522 -10.54161,-6.47206 -12.67061,-13.53919 -2.72538,-9.04681 -3.06356,-28.81303 -0.56798,-33.19834 1.71065,-3.00602 1.78271,-2.94766 5.91936,4.79465 9.94501,18.61345 32.37932,39.61971 42.31314,39.61971 2.97055,0 5.40966,-2.38644 5.40966,-5.29284 0,-1.23075 -4.28009,-8.83002 -9.51132,-16.88726 -10.48794,-16.15374 -18.1532,-30.75079 -21.77585,-41.46806 -2.8161,-8.33114 -3.26195,-29.07489 -0.75068,-34.926 l 1.60451,-3.7384 6.05669,13.28563 c 14.74387,32.34139 35.41129,63.54782 61.91154,93.4823 6.81788,7.70143 13.72104,15.7211 15.34035,17.82148 5.72775,7.42941 12.04588,18.985 12.04588,22.03142 0,2.92066 -8.16673,15.584 -9.97388,15.46551 -0.46547,-0.0305 -5.71539,-3.76778 -11.66649,-8.30504 z"
       id="path4"
       transform="scale(0.26458333)" /><path
       style="fill:#1a3c5b;fill-opacity:1;stroke:none;stroke-width:0.1;stroke-dasharray:none;stroke-opacity:1"
       d="m 75.668069,217.16491 c -0.86827,-1.13061 -5.67162,-7.64405 -7.06562,-9.58113 -0.52086,-0.72377 -2.02385,-1.86823 -4.75444,-3.62027 -6.05202,-3.88318 -9.45927,-6.30643 -9.34582,-6.64679 0.0562,-0.16859 1.40268,-1.09692 2.99217,-2.06296 3.27148,-1.98829 21.24061,-12.71276 27.18364,-16.22394 3.59819,-2.12583 3.99849,-2.43964 4.86602,-3.81455 2.7028,-4.2836 6.10231,-9.27368 8.37535,-12.294 2.570121,-3.41509 2.837911,-3.88854 2.199431,-3.88854 -0.192461,0 -1.471231,-0.54574 -2.841711,-1.21277 -5.59549,-2.72338 -9.16353,-6.30863 -10.46372,-10.5142 -0.4058,-1.31258 -0.60933,-1.59611 -1.37556,-1.91626 -6.24971,-2.6113 -10.64407,-9.22783 -10.73673,-16.16614 l -0.0395,-2.95417 -1.15685,-1.54375 c -4.01298,-5.35513 -4.9297,-12.07026 -2.48976,-18.23838 l 0.63821,-1.61337 -0.55728,-1.41382 c -2.68114,-6.802099 -1.85454,-14.52546 2.19193,-20.480373 l 0.66725,-0.981948 1.66213,2.203528 c 5.14929,6.826567 10.45998,11.93001 17.98435,17.282533 4.22913,3.00842 3.85934,3.01296 4.02464,-0.0494 0.2279,-4.222093 1.66139,-7.668112 4.440941,-10.675748 l 1.24189,-1.3438 0.18183,-2.298762 c 0.51761,-6.544035 3.09095,-11.331876 8.1323,-15.130652 1.17647,-0.886493 2.18427,-1.56657 2.23956,-1.511281 0.0553,0.05529 0.50732,1.578714 1.00452,3.38539 3.28005,11.918693 9.16574,22.089263 19.70755,34.054973 2.91937,3.31369 6.08441,7.51587 6.42066,8.5246 0.0729,0.21869 0.85294,-0.21137 2.21721,-1.22241 9.8228,-7.2795 21.91893,-6.73761 29.84103,1.33684 1.69528,1.72789 1.94458,1.88255 3.96875,2.46214 3.19866,0.91588 10.22963,4.7709 10.22963,5.60881 0,0.55084 -5.79294,4.50602 -9.75482,6.66019 -1.05536,0.57382 -1.20686,0.78952 -1.74225,2.48055 -0.74315,2.34725 -1.8413,4.50497 -3.84843,7.56166 -1.33065,2.02646 -1.78089,3.04142 -2.79064,6.29087 -5.79459,18.64732 -15.2038,30.35209 -30.15032,37.50602 -8.46467,4.0515 -13.54339,5.04929 -36.96603,7.26251 l -3.363941,0.31787 -2.45689,2.92729 c -1.35129,1.61002 -4.3405,5.13657 -6.64268,7.83679 -2.30218,2.70022 -5.09504,5.98106 -6.20636,7.29075 -7.2597,8.55556 -6.49925,7.91972 -7.66164,6.40613 z m 4.95691,-13.08452 c 1.81901,-2.12783 4.20026,-4.89866 5.29167,-6.15741 1.09141,-1.25874 3.72463,-4.31112 5.8516,-6.78307 l 3.86723,-4.49444 3.27652,-0.32584 c 1.802091,-0.17922 5.062461,-0.49272 7.245281,-0.69668 16.43701,-1.53584 21.91665,-2.58841 28.39716,-5.45475 9.12556,-4.03623 16.65561,-10.48732 21.80542,-18.68097 3.07167,-4.88721 4.31748,-7.91042 7.51752,-18.24286 0.44382,-1.43302 1.21072,-2.99467 2.27383,-4.6302 2.46311,-3.78936 3.60277,-6.21016 4.42196,-9.39293 0.26872,-1.04404 0.42129,-1.17809 2.80043,-2.46065 1.38393,-0.74606 2.4561,-1.45374 2.38262,-1.57264 -0.13052,-0.21118 -3.00833,-1.16011 -4.43412,-1.46211 -0.44473,-0.0942 -1.01212,-0.57735 -1.4961,-1.27399 -6.99779,-10.07259 -20.55919,-7.52334 -29.7704,5.59619 l -2.08501,2.96968 0.95056,2.03511 c 1.2972,2.77723 1.76425,4.76661 1.76425,7.51466 0,2.88049 0.0263,2.883 -2.66427,-0.25403 -8.06787,-9.40643 -12.47589,-12.95974 -22.73668,-18.32807 -17.261431,-9.03099 -28.273531,-16.38642 -36.947331,-24.678629 -2.86516,-2.739107 -2.79614,-2.730437 -2.45797,-0.308784 1.26038,9.025533 7.96374,15.780363 23.46633,23.646503 2.422071,1.22898 3.798431,2.08055 3.904901,2.41602 1.86086,5.86305 -20.295341,-2.73198 -26.236431,-10.17787 -2.38333,-2.98699 -1.20689,3.65667 1.32079,7.45883 3.54737,5.336 8.56694,8.01257 19.45422,10.3735 5.438951,1.17944 5.590191,1.25193 5.590191,2.67949 0,3.46891 -11.879551,3.00654 -20.216241,-0.78684 -2.24692,-1.0224 -2.2191,-1.05392 -1.07969,1.22362 2.87612,5.74904 8.43431,8.18905 19.265901,8.45761 7.07249,0.17537 7.20316,0.21711 7.00913,2.23923 -0.1525,1.58935 -5.30329,3.33244 -10.601501,3.58769 -3.30306,0.15913 -3.33463,0.20199 -1.32291,1.79579 3.966741,3.14268 9.843471,4.76238 15.676561,4.32067 5.40337,-0.40917 11.64167,-0.56779 11.64167,-0.29602 0,2.25587 -8.25647,6.29871 -13.47306,6.59718 l -2.80848,0.16069 -3.35607,4.47994 c -1.84584,2.46397 -5.117891,7.13608 -7.271211,10.38246 l -3.91514,5.90251 -13.29531,8.00885 c -7.31243,4.40487 -13.29532,8.09278 -13.29532,8.19536 0,0.18107 3.84145,2.64454 4.12379,2.64454 0.0774,0 1.05649,-0.69354 2.17569,-1.5412 2.79645,-2.118 9.1435,-6.62393 10.84097,-7.69627 1.34978,-0.8527 1.41561,-0.86683 1.91823,-0.41196 1.04085,0.94195 0.46415,1.71444 -6.84326,9.16668 -3.11472,3.17644 -4.26395,4.51373 -4.10367,4.77517 2.4445,3.98727 2.31341,3.9983 6.17575,-0.51976 z m 79.624141,-77.04854 c -3.9923,-1.21143 -3.33099,-6.62828 0.8092,-6.62828 3.92335,0 4.86635,5.56146 1.11944,6.60206 -1.10545,0.30701 -1.00767,0.30568 -1.92864,0.0262 z m -25.25689,-2.84306 c 1.45695,-1.96033 1.50238,-2.07041 1.22831,-2.97656 -0.5312,-1.75635 -2.6224,-4.92825 -4.96981,-7.53812 -5.7383,-6.37989 -7.4929,-8.5355 -10.45926,-12.84971 -3.58449,-5.21322 -7.16075,-11.708133 -9.21629,-16.737891 -0.70564,-1.726653 -0.91805,-1.674188 -1.45958,0.360517 -1.43031,5.374131 0.38516,11.263447 6.04847,19.621054 3.14959,4.64799 3.02829,4.36464 2.27713,5.31959 -1.7901,2.27574 -10.11779,-5.06711 -12.60407,-11.113501 -0.58189,-1.415104 -0.84896,-1.355977 -1.44374,0.319634 -0.85822,2.417767 -0.31346,7.819647 1.03934,10.306107 0.33,0.60655 6.22918,4.00383 13.58757,7.82497 5.52589,2.86954 8.9285,5.01759 12.27239,7.74752 1.16417,0.95042 2.13242,1.73342 2.15166,1.74001 0.0192,0.007 0.71579,-0.90403 1.54788,-2.02362 z"
       id="path2" /></g></svg>
