<?xml version="1.0" encoding="UTF-8" standalone="no"?>
<svg
   clip-rule="evenodd"
   fill-rule="evenodd"
   stroke-linejoin="round"
   stroke-miterlimit="2"
   viewBox="0 0 24 24"
   version="1.1"
   id="svg1"
   sodipodi:docname="iconmonstr-pencil-lined.svg"
   inkscape:version="1.4.2 (ebf0e940d0, 2025-05-08)"
   xmlns:inkscape="http://www.inkscape.org/namespaces/inkscape"
   xmlns:sodipodi="http://sodipodi.sourceforge.net/DTD/sodipodi-0.dtd"
   xmlns="http://www.w3.org/2000/svg"
   xmlns:svg="http://www.w3.org/2000/svg">
  <defs
     id="defs1" />
  <sodipodi:namedview
     id="namedview1"
     pagecolor="#505050"
     bordercolor="#eeeeee"
     borderopacity="1"
     inkscape:showpageshadow="0"
     inkscape:pageopacity="0"
     inkscape:pagecheckerboard="0"
     inkscape:deskcolor="#505050"
     inkscape:zoom="47.291667"
     inkscape:cx="12"
     inkscape:cy="12"
     inkscape:window-width="2560"
     inkscape:window-height="1400"
     inkscape:window-x="0"
     inkscape:window-y="0"
     inkscape:window-maximized="1"
     inkscape:current-layer="svg1" />
  <path
     d="m9.134 19.319 11.587-11.588c.171-.171.279-.423.279-.684 0-.229-.083-.466-.28-.662l-3.115-3.104c-.185-.185-.429-.277-.672-.277s-.486.092-.672.277l-11.606 11.566c-.569 1.763-1.555 4.823-1.626 5.081-.02.075-.029.15-.029.224 0 .461.349.848.765.848.511 0 .991-.189 5.369-1.681zm-3.27-3.342 2.137 2.137-3.168 1.046zm.955-1.166 10.114-10.079 2.335 2.327-10.099 10.101z"
     fill-rule="nonzero"
     id="path1"
     style="fill:#ffffff" />
</svg>
